<?xml version="1.0" encoding="UTF-8"?>
<svg width="256" height="256" viewBox="0 0 256 256" fill="none" xmlns="http://www.w3.org/2000/svg" role="img" aria-label="Импорт/Экспорт">
<title>Импорт/Экспорт</title>
<desc>Импорт и экспорт таблиц</desc>

<path d="M62 38H152L188 74V218H62V38Z" fill="#FFFFFF" stroke="#1F2328" stroke-width="9" stroke-linejoin="round"/>
<path d="M152 38V78H188" stroke="#1F2328" stroke-width="9" stroke-linejoin="round"/>
<path d="M84 94H132M84 124H132M84 154H132" stroke="#1F2328" stroke-width="7" stroke-linecap="round"/>
<path d="M84 88V168" stroke="#1F2328" stroke-width="7" stroke-linecap="round"/>
<path d="M108 88V168" stroke="#1F2328" stroke-width="5" stroke-linecap="round"/>
<path d="M132 88V168" stroke="#1F2328" stroke-width="5" stroke-linecap="round"/>
<polygon points="160,100 206,100 206,82 230,116 206,150 206,132 160,132" fill="#1D3F8C" stroke="#1D3F8C" stroke-linejoin="round"/>
<polygon points="160,176 206,176 206,158 230,192 206,226 206,208 160,208" fill="#D52B1E" stroke="#D52B1E" stroke-linejoin="round"/>

</svg>
