<?xml version="1.0" encoding="UTF-8"?>
<svg width="256" height="256" viewBox="0 0 256 256" fill="none" xmlns="http://www.w3.org/2000/svg" role="img" aria-label="Турниры">
<title>Турниры</title>
<desc>Календарь турниров и мишень</desc>

<g transform="translate(34 30)">
<circle cx="72" cy="78" r="64" fill="#FFFFFF" stroke="#1F2328" stroke-width="7"/>
<path d="M72 78L136.0 78.0" stroke="#1F2328" stroke-width="4" stroke-linecap="round" stroke-linejoin="round"/>
<path d="M72 78L117.3 123.3" stroke="#1F2328" stroke-width="4" stroke-linecap="round" stroke-linejoin="round"/>
<path d="M72 78L72.0 142.0" stroke="#1F2328" stroke-width="4" stroke-linecap="round" stroke-linejoin="round"/>
<path d="M72 78L26.7 123.3" stroke="#1F2328" stroke-width="4" stroke-linecap="round" stroke-linejoin="round"/>
<path d="M72 78L8.0 78.0" stroke="#1F2328" stroke-width="4" stroke-linecap="round" stroke-linejoin="round"/>
<path d="M72 78L26.7 32.7" stroke="#1F2328" stroke-width="4" stroke-linecap="round" stroke-linejoin="round"/>
<path d="M72 78L72.0 14.0" stroke="#1F2328" stroke-width="4" stroke-linecap="round" stroke-linejoin="round"/>
<path d="M72 78L117.3 32.7" stroke="#1F2328" stroke-width="4" stroke-linecap="round" stroke-linejoin="round"/>
<circle cx="72" cy="78" r="37.12" fill="none" stroke="#1D3F8C" stroke-width="5"/>
<circle cx="72" cy="78" r="17.28" fill="#D52B1E" stroke="#FFFFFF" stroke-width="5"/>
</g>
<rect x="118" y="74" width="96" height="116" rx="13" fill="#FFFFFF" stroke="#1F2328" stroke-width="9" stroke-linejoin="round"/>
<path d="M118 104H214" stroke="#1D3F8C" stroke-width="18" stroke-linecap="round"/>
<path d="M146 58L146 86" stroke="#1F2328" stroke-width="9" stroke-linecap="round" stroke-linejoin="round"/>
<path d="M186 58L186 86" stroke="#1F2328" stroke-width="9" stroke-linecap="round" stroke-linejoin="round"/>
<rect x="136" y="122" width="18" height="18" rx="3" fill="#1F2328"/>
<rect x="166" y="122" width="18" height="18" rx="3" fill="#1F2328"/>
<rect x="136" y="152" width="18" height="18" rx="3" fill="#1F2328"/>
<rect x="166" y="152" width="18" height="18" rx="3" fill="#D52B1E"/>

</svg>
